<svg width="72" height="72" viewBox="0 0 72 72" fill="none" xmlns="http://www.w3.org/2000/svg">
<path d="M5.82309 18.5774L36 1.1547L66.1769 18.5774V53.4226L36 70.8453L5.82309 53.4226V18.5774Z" stroke="#00FFFF" stroke-width="2"/>
<path d="M34.9345 36.937C34.9345 38.677 34.6638 40.1947 34.1225 41.49C33.5811 42.766 32.8175 43.8293 31.8315 44.68C30.8455 45.5113 29.6661 46.1397 28.2935 46.565C26.9208 46.971 25.4128 47.174 23.7695 47.174C22.9575 47.174 22.0585 47.1353 21.0725 47.058C20.1058 47 19.2261 46.8743 18.4335 46.681V27.193C19.2261 26.9997 20.1058 26.874 21.0725 26.816C22.0585 26.7387 22.9575 26.7 23.7695 26.7C25.4128 26.7 26.9208 26.9127 28.2935 27.338C29.6661 27.744 30.8455 28.3723 31.8315 29.223C32.8175 30.0543 33.5811 31.1177 34.1225 32.413C34.6638 33.689 34.9345 35.197 34.9345 36.937ZM24.0015 44.709C26.6695 44.709 28.6608 44.0323 29.9755 42.679C31.2901 41.3063 31.9475 39.3923 31.9475 36.937C31.9475 34.4817 31.2901 32.5773 29.9755 31.224C28.6608 29.8513 26.6695 29.165 24.0015 29.165C23.2088 29.165 22.5901 29.1747 22.1455 29.194C21.7201 29.2133 21.4205 29.2327 21.2465 29.252V44.622C21.4205 44.6413 21.7201 44.6607 22.1455 44.68C22.5901 44.6993 23.2088 44.709 24.0015 44.709ZM51.7513 26.903H54.5643V47H51.7513V37.72H41.9203V47H39.1073V26.903H41.9203V35.284H51.7513V26.903Z" fill="#00FFFF"/>
</svg>
